<mxfile host="app.diagrams.net" modified="2022-11-14T17:47:06.483Z" agent="5.0 (Windows NT 10.0; Win64; x64) AppleWebKit/537.36 (KHTML, like Gecko) Chrome/107.0.0.0 Safari/537.36" etag="SEl-NGW2AeppUNU57z-5" version="20.5.3" type="github">
  <diagram id="0C3uIZVWzqxX3jBcs8In" name="Stránka-1">
    <mxGraphModel dx="2500" dy="925" grid="0" gridSize="49" guides="1" tooltips="1" connect="1" arrows="1" fold="1" page="1" pageScale="1" pageWidth="827" pageHeight="1169" background="#F1FAEE" math="0" shadow="0">
      <root>
        <mxCell id="0" />
        <mxCell id="1" parent="0" />
        <mxCell id="h9gwu4uj0Tc7yE8LhHJW-14" value="Clickable(link), opens new window with the latest magazine issue" style="html=1;whiteSpace=wrap;container=1;recursiveResize=0;collapsible=0;fillColor=#ffff88;strokeColor=#36393d;" vertex="1" parent="1">
          <mxGeometry x="-115" y="172" width="233" height="70" as="geometry" />
        </mxCell>
        <mxCell id="h9gwu4uj0Tc7yE8LhHJW-2" value="Welcome page layout" style="swimlane;whiteSpace=wrap;html=1;fillColor=#A8DADC;strokeColor=#457B9D;fontColor=#1D3557;" vertex="1" parent="1">
          <mxGeometry x="170" y="152" width="450" height="408" as="geometry" />
        </mxCell>
        <mxCell id="h9gwu4uj0Tc7yE8LhHJW-3" value="Recent magazine issue front side preview" style="swimlane;whiteSpace=wrap;html=1;fillColor=#A8DADC;strokeColor=#457B9D;fontColor=#1D3557;" vertex="1" parent="h9gwu4uj0Tc7yE8LhHJW-2">
          <mxGeometry x="94" y="90" width="274" height="240" as="geometry" />
        </mxCell>
        <mxCell id="h9gwu4uj0Tc7yE8LhHJW-4" value="Login" style="swimlane;whiteSpace=wrap;html=1;strokeColor=#457B9D;fontColor=#1D3557;fillColor=#A8DADC;fillStyle=auto;glass=0;shadow=0;rounded=0;perimeterSpacing=1;fillOpacity=100;startSize=90;strokeWidth=3;" vertex="1" parent="h9gwu4uj0Tc7yE8LhHJW-3">
          <mxGeometry x="-64" y="109" width="190" height="90" as="geometry" />
        </mxCell>
        <mxCell id="h9gwu4uj0Tc7yE8LhHJW-9" value="* link to previous mag. issue" style="text;html=1;strokeColor=none;fillColor=none;align=center;verticalAlign=middle;whiteSpace=wrap;rounded=0;" vertex="1" parent="h9gwu4uj0Tc7yE8LhHJW-2">
          <mxGeometry x="99" y="347" width="177" height="30" as="geometry" />
        </mxCell>
        <mxCell id="h9gwu4uj0Tc7yE8LhHJW-10" value="* link to previous mag. issue" style="text;html=1;strokeColor=none;fillColor=none;align=center;verticalAlign=middle;whiteSpace=wrap;rounded=0;" vertex="1" parent="h9gwu4uj0Tc7yE8LhHJW-2">
          <mxGeometry x="99" y="370" width="177" height="30" as="geometry" />
        </mxCell>
        <mxCell id="h9gwu4uj0Tc7yE8LhHJW-5" value="Footer" style="swimlane;whiteSpace=wrap;html=1;rounded=0;shadow=0;glass=0;fillStyle=auto;strokeColor=#457B9D;fontColor=#1D3557;fillColor=#A8DADC;" vertex="1" parent="1">
          <mxGeometry x="170" y="560" width="450" height="30" as="geometry" />
        </mxCell>
        <mxCell id="h9gwu4uj0Tc7yE8LhHJW-11" value="" style="endArrow=classic;html=1;rounded=0;exitX=0;exitY=0;exitDx=0;exitDy=0;entryX=1;entryY=0.5;entryDx=0;entryDy=0;" edge="1" parent="1" source="h9gwu4uj0Tc7yE8LhHJW-3" target="h9gwu4uj0Tc7yE8LhHJW-14">
          <mxGeometry width="50" height="50" relative="1" as="geometry">
            <mxPoint x="389" y="414" as="sourcePoint" />
            <mxPoint x="115" y="92" as="targetPoint" />
          </mxGeometry>
        </mxCell>
        <mxCell id="h9gwu4uj0Tc7yE8LhHJW-17" value="Clickable(link), opens new window with the previus magazine issue" style="html=1;whiteSpace=wrap;container=1;recursiveResize=0;collapsible=0;fillColor=#ffff88;strokeColor=#36393d;" vertex="1" parent="1">
          <mxGeometry x="-85" y="492" width="233" height="70" as="geometry" />
        </mxCell>
        <mxCell id="h9gwu4uj0Tc7yE8LhHJW-18" value="" style="endArrow=classic;html=1;rounded=0;exitX=0;exitY=0.5;exitDx=0;exitDy=0;entryX=1;entryY=0.5;entryDx=0;entryDy=0;" edge="1" parent="1" source="h9gwu4uj0Tc7yE8LhHJW-9" target="h9gwu4uj0Tc7yE8LhHJW-17">
          <mxGeometry width="50" height="50" relative="1" as="geometry">
            <mxPoint x="389" y="399" as="sourcePoint" />
            <mxPoint x="439" y="349" as="targetPoint" />
          </mxGeometry>
        </mxCell>
        <mxCell id="h9gwu4uj0Tc7yE8LhHJW-19" value="" style="endArrow=classic;html=1;rounded=0;exitX=0;exitY=0.5;exitDx=0;exitDy=0;entryX=1;entryY=0.75;entryDx=0;entryDy=0;" edge="1" parent="1" source="h9gwu4uj0Tc7yE8LhHJW-10" target="h9gwu4uj0Tc7yE8LhHJW-17">
          <mxGeometry width="50" height="50" relative="1" as="geometry">
            <mxPoint x="318" y="563" as="sourcePoint" />
            <mxPoint x="197" y="576" as="targetPoint" />
          </mxGeometry>
        </mxCell>
        <mxCell id="h9gwu4uj0Tc7yE8LhHJW-20" value="&lt;b&gt;Footer&lt;/b&gt;:&lt;br&gt;Usual footer info wit copyright, contact and help" style="html=1;whiteSpace=wrap;container=1;recursiveResize=0;collapsible=0;fillColor=#ffff88;strokeColor=#36393d;" vertex="1" parent="1">
          <mxGeometry x="-19" y="623" width="233" height="70" as="geometry" />
        </mxCell>
        <mxCell id="h9gwu4uj0Tc7yE8LhHJW-21" value="" style="endArrow=classic;html=1;rounded=0;exitX=0.5;exitY=1;exitDx=0;exitDy=0;" edge="1" parent="1" source="h9gwu4uj0Tc7yE8LhHJW-5" target="h9gwu4uj0Tc7yE8LhHJW-20">
          <mxGeometry width="50" height="50" relative="1" as="geometry">
            <mxPoint x="389" y="399" as="sourcePoint" />
            <mxPoint x="439" y="349" as="targetPoint" />
          </mxGeometry>
        </mxCell>
        <mxCell id="h9gwu4uj0Tc7yE8LhHJW-22" value="&amp;lt;User page&amp;gt;&lt;br&gt;content depends on login role" style="swimlane;whiteSpace=wrap;html=1;fillColor=#A8DADC;strokeColor=#457B9D;fontColor=#1D3557;startSize=49;" vertex="1" parent="1">
          <mxGeometry x="675" y="161" width="848" height="408" as="geometry" />
        </mxCell>
        <mxCell id="h9gwu4uj0Tc7yE8LhHJW-30" value="Autor" style="swimlane;fontStyle=0;childLayout=stackLayout;horizontal=1;startSize=30;horizontalStack=0;resizeParent=1;resizeParentMax=0;resizeLast=0;collapsible=1;marginBottom=0;whiteSpace=wrap;html=1;strokeWidth=1;fillColor=#A8DADC;" vertex="1" parent="h9gwu4uj0Tc7yE8LhHJW-22">
          <mxGeometry x="21" y="67" width="142" height="120" as="geometry" />
        </mxCell>
        <mxCell id="h9gwu4uj0Tc7yE8LhHJW-31" value="Item 1" style="text;strokeColor=none;fillColor=none;align=left;verticalAlign=middle;spacingLeft=4;spacingRight=4;overflow=hidden;points=[[0,0.5],[1,0.5]];portConstraint=eastwest;rotatable=0;whiteSpace=wrap;html=1;strokeWidth=3;" vertex="1" parent="h9gwu4uj0Tc7yE8LhHJW-30">
          <mxGeometry y="30" width="142" height="30" as="geometry" />
        </mxCell>
        <mxCell id="h9gwu4uj0Tc7yE8LhHJW-32" value="Item 2" style="text;strokeColor=none;fillColor=none;align=left;verticalAlign=middle;spacingLeft=4;spacingRight=4;overflow=hidden;points=[[0,0.5],[1,0.5]];portConstraint=eastwest;rotatable=0;whiteSpace=wrap;html=1;strokeWidth=3;" vertex="1" parent="h9gwu4uj0Tc7yE8LhHJW-30">
          <mxGeometry y="60" width="142" height="30" as="geometry" />
        </mxCell>
        <mxCell id="h9gwu4uj0Tc7yE8LhHJW-33" value="Item 3" style="text;strokeColor=none;fillColor=none;align=left;verticalAlign=middle;spacingLeft=4;spacingRight=4;overflow=hidden;points=[[0,0.5],[1,0.5]];portConstraint=eastwest;rotatable=0;whiteSpace=wrap;html=1;strokeWidth=3;" vertex="1" parent="h9gwu4uj0Tc7yE8LhHJW-30">
          <mxGeometry y="90" width="142" height="30" as="geometry" />
        </mxCell>
        <mxCell id="h9gwu4uj0Tc7yE8LhHJW-34" value="Redaktor" style="swimlane;fontStyle=0;childLayout=stackLayout;horizontal=1;startSize=30;horizontalStack=0;resizeParent=1;resizeParentMax=0;resizeLast=0;collapsible=1;marginBottom=0;whiteSpace=wrap;html=1;strokeWidth=1;fillColor=#A8DADC;" vertex="1" parent="h9gwu4uj0Tc7yE8LhHJW-22">
          <mxGeometry x="189" y="67" width="142" height="120" as="geometry" />
        </mxCell>
        <mxCell id="h9gwu4uj0Tc7yE8LhHJW-35" value="Item 1" style="text;strokeColor=none;fillColor=none;align=left;verticalAlign=middle;spacingLeft=4;spacingRight=4;overflow=hidden;points=[[0,0.5],[1,0.5]];portConstraint=eastwest;rotatable=0;whiteSpace=wrap;html=1;strokeWidth=3;" vertex="1" parent="h9gwu4uj0Tc7yE8LhHJW-34">
          <mxGeometry y="30" width="142" height="30" as="geometry" />
        </mxCell>
        <mxCell id="h9gwu4uj0Tc7yE8LhHJW-36" value="Item 2" style="text;strokeColor=none;fillColor=none;align=left;verticalAlign=middle;spacingLeft=4;spacingRight=4;overflow=hidden;points=[[0,0.5],[1,0.5]];portConstraint=eastwest;rotatable=0;whiteSpace=wrap;html=1;strokeWidth=3;" vertex="1" parent="h9gwu4uj0Tc7yE8LhHJW-34">
          <mxGeometry y="60" width="142" height="30" as="geometry" />
        </mxCell>
        <mxCell id="h9gwu4uj0Tc7yE8LhHJW-37" value="Item 3" style="text;strokeColor=none;fillColor=none;align=left;verticalAlign=middle;spacingLeft=4;spacingRight=4;overflow=hidden;points=[[0,0.5],[1,0.5]];portConstraint=eastwest;rotatable=0;whiteSpace=wrap;html=1;strokeWidth=3;" vertex="1" parent="h9gwu4uj0Tc7yE8LhHJW-34">
          <mxGeometry y="90" width="142" height="30" as="geometry" />
        </mxCell>
        <mxCell id="h9gwu4uj0Tc7yE8LhHJW-38" value="Šéfedaktor" style="swimlane;fontStyle=0;childLayout=stackLayout;horizontal=1;startSize=30;horizontalStack=0;resizeParent=1;resizeParentMax=0;resizeLast=0;collapsible=1;marginBottom=0;whiteSpace=wrap;html=1;strokeWidth=1;fillColor=#A8DADC;" vertex="1" parent="h9gwu4uj0Tc7yE8LhHJW-22">
          <mxGeometry x="353" y="67" width="142" height="120" as="geometry" />
        </mxCell>
        <mxCell id="h9gwu4uj0Tc7yE8LhHJW-39" value="Item 1" style="text;strokeColor=none;fillColor=none;align=left;verticalAlign=middle;spacingLeft=4;spacingRight=4;overflow=hidden;points=[[0,0.5],[1,0.5]];portConstraint=eastwest;rotatable=0;whiteSpace=wrap;html=1;strokeWidth=3;" vertex="1" parent="h9gwu4uj0Tc7yE8LhHJW-38">
          <mxGeometry y="30" width="142" height="30" as="geometry" />
        </mxCell>
        <mxCell id="h9gwu4uj0Tc7yE8LhHJW-40" value="Item 2" style="text;strokeColor=none;fillColor=none;align=left;verticalAlign=middle;spacingLeft=4;spacingRight=4;overflow=hidden;points=[[0,0.5],[1,0.5]];portConstraint=eastwest;rotatable=0;whiteSpace=wrap;html=1;strokeWidth=3;" vertex="1" parent="h9gwu4uj0Tc7yE8LhHJW-38">
          <mxGeometry y="60" width="142" height="30" as="geometry" />
        </mxCell>
        <mxCell id="h9gwu4uj0Tc7yE8LhHJW-41" value="Item 3" style="text;strokeColor=none;fillColor=none;align=left;verticalAlign=middle;spacingLeft=4;spacingRight=4;overflow=hidden;points=[[0,0.5],[1,0.5]];portConstraint=eastwest;rotatable=0;whiteSpace=wrap;html=1;strokeWidth=3;" vertex="1" parent="h9gwu4uj0Tc7yE8LhHJW-38">
          <mxGeometry y="90" width="142" height="30" as="geometry" />
        </mxCell>
        <mxCell id="h9gwu4uj0Tc7yE8LhHJW-29" value="" style="curved=1;endArrow=classic;html=1;rounded=0;entryX=0.5;entryY=0;entryDx=0;entryDy=0;exitX=1;exitY=0.5;exitDx=0;exitDy=0;strokeWidth=3;strokeColor=#6D8E8F;" edge="1" parent="1" source="h9gwu4uj0Tc7yE8LhHJW-4" target="h9gwu4uj0Tc7yE8LhHJW-22">
          <mxGeometry width="50" height="50" relative="1" as="geometry">
            <mxPoint x="680" y="393" as="sourcePoint" />
            <mxPoint x="730" y="343" as="targetPoint" />
            <Array as="points">
              <mxPoint x="720" y="479" />
              <mxPoint x="560" y="-39" />
            </Array>
          </mxGeometry>
        </mxCell>
      </root>
    </mxGraphModel>
  </diagram>
</mxfile>
